<?xml version="1.0" encoding="utf-8"?>
<!-- Generator: Adobe Illustrator 24.0.1, SVG Export Plug-In . SVG Version: 6.00 Build 0)  -->
<svg version="1.1" id="ac206263-5956-4237-860a-8b5eff4799f1"
	 xmlns="http://www.w3.org/2000/svg" xmlns:xlink="http://www.w3.org/1999/xlink" x="0px" y="0px" viewBox="0 0 63.1 37.2"
	 style="enable-background:new 0 0 63.1 37.2;" xml:space="preserve">
<g>
	<title>decaryi_logo</title>
	<rect x="38" y="18.9" width="2.1" height="9.5"/>
	<path d="M8.4,18.9v6.3c0,0.6-0.5,1-1,1s-1-0.5-1-1v-6.3H4.2v6.3c0,1.8,1.4,3.2,3.2,3.2c0.4,0,0.7,0,1-0.2v0.2h2.1v-9.5H8.4z"/>
	<path d="M33.7,18.9v6.3c0,0.6-0.5,1-1,1c-0.6,0-1-0.5-1-1v-6.3h-2.1v6.3c0,1.8,1.4,3.2,3.2,3.2c0.4,0,0.7,0,1-0.2v0.2h2.1v-9.5
		H33.7z"/>
	<path d="M15.8,28.3c1.8,0,3.2-1.4,3.2-3.2V21h-2.1v4.2c0,0.6-0.5,1-1,1s-1-0.5-1-1l0,0v-6.3h-2.1v6.3C12.6,26.9,14,28.3,15.8,28.3"
		/>
	<path d="M24.2,28.3c1.8,0,3.2-1.4,3.2-3.2V21h-2.1v4.2c0,0.6-0.5,1-1,1s-1-0.5-1-1l0,0v-6.3H21v6.3C21.1,26.9,22.5,28.3,24.2,28.3
		L24.2,28.3"/>
	<path d="M35.9,18.9v-6.3c0-0.6-0.5-1-1-1c-0.6,0-1,0.5-1,1v6.3h-2.1v-6.3c0-1.8,1.4-3.2,3.2-3.2c0.4,0,0.7,0,1,0.2V9.4H38v9.5
		L35.9,18.9L35.9,18.9z"/>
	<path d="M26.3,9.4c-1.8,0-3.2,1.4-3.2,3.2l0,0v6.3h2.1v-6.3c0-0.6,0.5-1,1-1s1,0.5,1,1v6.3h2.1v-6.3C29.5,10.8,28.1,9.4,26.3,9.4
		L26.3,9.4"/>
	<path d="M10.5,18.9v-6.3c0-0.6-0.5-1-1-1s-1,0.5-1,1v6.3H6.3v-6.3c0-1.8,1.4-3.2,3.2-3.2c0.4,0,0.7,0,1,0.2V4.1h2.1v14.7H10.5z"/>
	<path d="M42.2,18.9v-6.3c0-0.6,0.5-1,1-1s1,0.5,1,1v6.3h2.1v-6.3c0-1.8-1.4-3.2-3.2-3.2c-0.4,0-0.7,0-1,0.2V9.4h-2.1v9.5L42.2,18.9
		L42.2,18.9z"/>
	<path d="M48.5,18.9v6.3c0,0.6,0.5,1,1,1s1-0.5,1-1l0,0v-6.3h2.1v6.3c0,1.8-1.4,3.2-3.2,3.2c-0.4,0-0.7,0-1-0.2v0.2h-2.1v-9.5H48.5z
		"/>
	<path d="M45.4,33.6c1.8,0,3.2-1.4,3.2-3.2v-2.1h-2.1v2.1c0,0.6-0.5,1-1,1c-0.6,0-1-0.5-1-1v-9.5h-2.1v9.5
		C42.2,32.2,43.6,33.6,45.4,33.6L45.4,33.6"/>
	<rect x="48.5" y="9.4" width="2.1" height="9.5"/>
	<rect x="52.8" y="9.4" width="2.1" height="9.5"/>
	<rect x="54.9" y="18.9" width="2.1" height="9.5"/>
	<rect x="57" y="9.4" width="2.1" height="9.5"/>
	<path d="M17.9,9.4c-1.8,0-3.2,1.4-3.2,3.2v6.3h6.3v-6.3C21.1,10.8,19.7,9.4,17.9,9.4z M16.8,16.8v-4.2c0-0.6,0.5-1,1-1s1,0.5,1,1
		v4.2H16.8z"/>
</g>
</svg>
